inDegrees=no
num_controls=7
num_derivatives=13
num_iterations=168
num_multipliers=7
num_parameters=0
num_slacks=7
num_states=26
objective=0.545338
objective_accelerations=0.042358
objective_balance=0.003891
objective_effort=0.041109
objective_height=0.448539
objective_ligament=0.009441
solver_duration=1808.488284
status=Solve_Succeeded
success=true
DataType=double
version=3
OpenSimVersion=4.5
endheader
time	/jointset/ground_pelvis/pelvis_tilt/value	/jointset/ground_pelvis/pelvis_tx/value	/jointset/ground_pelvis/pelvis_ty/value	/jointset/hip_r/hip_flexion_r/value	/jointset/hip_r/hip_adduction_r/value	/jointset/hip_r/hip_rotation_r/value	/jointset/back/lumbar_extension/value	/jointset/patellofemoral_r/patellar_flexion_r/value	/jointset/knee_r/knee_flexion_r/value	/jointset/knee_r/knee_adduction_r/value	/jointset/knee_r/knee_rotation_r/value	/jointset/ankle_r/ankle_angle_r/value	/jointset/subtalar_r/subtalar_angle_r/value	/jointset/ground_pelvis/pelvis_tilt/speed	/jointset/ground_pelvis/pelvis_tx/speed	/jointset/ground_pelvis/pelvis_ty/speed	/jointset/hip_r/hip_flexion_r/speed	/jointset/hip_r/hip_adduction_r/speed	/jointset/hip_r/hip_rotation_r/speed	/jointset/back/lumbar_extension/speed	/jointset/patellofemoral_r/patellar_flexion_r/speed	/jointset/knee_r/knee_flexion_r/speed	/jointset/knee_r/knee_adduction_r/speed	/jointset/knee_r/knee_rotation_r/speed	/jointset/ankle_r/ankle_angle_r/speed	/jointset/subtalar_r/subtalar_angle_r/speed	/forceset/tau_hip_flexion_r	/forceset/tau_hip_adduction_r	/forceset/tau_hip_rotation_r	/forceset/tau_knee_flexion_r	/forceset/tau_ankle_angle_r	/forceset/tau_subtalar_angle_r	/forceset/tau_lumbar_extension	lambda_cid13_p0	lambda_cid14_p0	lambda_cid14_p1	lambda_cid14_p2	lambda_cid14_p3	lambda_cid14_p4	lambda_cid14_p5	/jointset/ground_pelvis/pelvis_tilt/accel	/jointset/ground_pelvis/pelvis_tx/accel	/jointset/ground_pelvis/pelvis_ty/accel	/jointset/hip_r/hip_flexion_r/accel	/jointset/hip_r/hip_adduction_r/accel	/jointset/hip_r/hip_rotation_r/accel	/jointset/back/lumbar_extension/accel	/jointset/patellofemoral_r/patellar_flexion_r/accel	/jointset/knee_r/knee_flexion_r/accel	/jointset/knee_r/knee_adduction_r/accel	/jointset/knee_r/knee_rotation_r/accel	/jointset/ankle_r/ankle_angle_r/accel	/jointset/subtalar_r/subtalar_angle_r/accel	gamma_cid13_p0	gamma_cid14_p0	gamma_cid14_p1	gamma_cid14_p2	gamma_cid14_p3	gamma_cid14_p4	gamma_cid14_p5
1.5	-0.2359406454626005	0.002281488038884062	0.8473544444890354	0.8863716427169996	-0.2252603087856622	-0.142499473827868	-0.3072385371899062	0.652000887766103	0.6520008877661033	0.03671400569077107	0.1745298208597729	0.1687718470290768	0.036516396179739	0.5772961831873318	0.2446786986014938	0.4069948553324241	-2.015945772233802	0.01173482435717852	-0.2908539678759666	0.6939809280362299	-1.741723757561054	-1.741723757561037	0.2764658305160151	-1.391167290340817e-05	-0.3831679649721735	-0.08344109373855267	-0.1491418069795704	-0.02308217580914473	0.007784165677188254	-0.2915300503436139	0.1089441433569448	-0.007767109642500404	0.1795677402392437	-33.98529698918132	-6.573446794882173	-0.1076483710471295	-4.567655206787181	-2.583984740829257	-658.4591358711509	59.7707261938558	0.2885661739225202	0.5465323569085822	-0.4506398990076794	-1.186823125855406	0.007776006935262677	-0.5109828581929931	1.680977400081384	-1.09881781667573	-1.098817816675732	0.4446756098587024	0.003762537386648296	-0.3205699911350071	-0.04064925663168496	1.30429956002221e-07	1.903857375558101e-07	-4.343168847119622e-07	1.270638707058567e-06	-6.400668661664492e-08	2.65857634049156e-07	-4.448003178730833e-07
1.51	-0.23015377472217	0.004755300830418313	0.8514009985161756	0.8661550354167025	-0.2251435493285553	-0.1454323326694934	-0.3002160090392385	0.6345310320452852	0.6345310320452918	0.03950326525995811	0.1745299348441862	0.1649243987302449	0.03567882546645755	0.5799947833844199	0.2500487784301356	0.4022280559791913	-2.0270946809791	0.01161245683851582	-0.2956895448985743	0.7104195393576024	-1.751995781306685	-1.751995781306677	0.2813821962873825	2.531476188604616e-05	-0.3862637350291344	-0.08406258728599156	-0.1411115579960362	-0.02450010251534405	0.007160037211715717	-0.288771150904226	0.110902026580964	-0.008484584409010777	0.1726377614962257	-34.89353434929859	-5.745529080564568	-0.186390632057716	-4.655497890117113	-2.774505430093652	-654.174802882639	59.73174651512279	0.2480499471012508	0.5269712843762638	-0.5028266394545555	-1.036747310890308	-0.02279208563413581	-0.4653815388670452	1.609528587211765	-0.9536819975564861	-0.9536819975579317	0.5145267948972675	0.002549167171387103	-0.2953779018432431	-0.07125280983821311	1.372029886905924e-07	1.96490137753548e-07	-4.801407904772545e-07	1.313219288416794e-06	-6.241881644246846e-08	2.799155121901996e-07	-4.919464272884361e-07
1.52	-0.2243424093788685	0.007281759517945846	0.8553972592125887	0.8458353745165479	-0.2250281233375085	-0.1484126545642593	-0.2930322496575476	0.6169659986182012	0.6169659986182136	0.04234157043368336	0.1745301503870756	0.1610477332530702	0.03483536913649406	0.582195103761479	0.2552078778001505	0.3969361891870201	-2.036556492205329	0.01146813114516905	-0.3003465785040771	0.7262271742408377	-1.760759298814305	-1.760759298814307	0.2862749514236101	6.400022527203342e-06	-0.3890114006407598	-0.08461821707495934	-0.1330813090125023	-0.02591802922154307	0.006535908746238191	-0.2860122514648379	0.1128599098049833	-0.009202059175520562	0.1657077827532075	-35.77002714648516	-4.925148274464105	-0.2627285974789947	-4.747978458525135	-2.964845262048992	-650.0135525885318	59.77379972930451	0.188910209916734	0.5043362651831833	-0.5556533867953453	-0.8494036220413621	0.003384371998448803	-0.4752741747719955	1.554782112453959	-0.7971165690734889	-0.7971165690734894	0.4399534828307395	-0.007865697443011464	-0.2509491020679336	-0.02747650493746336	1.449070375397817e-07	1.987993031449819e-07	-5.592234702339508e-07	1.330755194464535e-06	-5.499174740484338e-08	2.916243026283428e-07	-5.473445282457871e-07
1.53	-0.218511569179598	0.009858734431403206	0.8593380504668332	0.8254295131773017	-0.2249142458284284	-0.151439120055352	-0.2856935987960239	0.599320868644692	0.5993208686446914	0.04522840733452233	0.1745302296917336	0.1571453810276277	0.03398671825057006	0.5838854140006475	0.2601495201196449	0.3911416921677746	-2.044331200822736	0.01130976123385734	-0.3049347512987478	0.7413941283614105	-1.768011975761923	-1.768011975761933	0.2910641227979584	7.55746506829933e-06	-0.3913936313551003	-0.08509124420314657	-0.124989638992681	-0.02758486100153492	0.005931667819804373	-0.2835305115398912	0.1151954789502498	-0.01005524004072552	0.1587500083107386	-36.61019955101086	-4.003855044646677	-0.3833688789671885	-4.829929360642558	-3.222572911455169	-646.0934386363208	59.80171912803494	0.1459829311840247	0.4834336869597557	-0.603342129740235	-0.6987922156315487	-0.02497462316705668	-0.4485817878221238	1.481321606485759	-0.6511668896093707	-0.651166889610698	0.494114441923856	0.004075019674382264	-0.2220342512789776	-0.05406960612891625	1.536002910598401e-07	1.970760315547179e-07	-6.736435973565138e-07	1.321681132994882e-06	-4.136052957480421e-08	3.008371873821543e-07	-6.115103702165117e-07
1.54	-0.212666447577882	0.01248399686238096	0.863218497896835	0.8049544472050733	-0.2248018574085559	-0.1545110658655928	-0.2782065444843689	0.581610847175306	0.5816108471752921	0.04816227904454248	0.1745303142817302	0.1532211716560095	0.03313396633549028	0.5850513842504997	0.2648653813042289	0.3848674243384866	-2.050397418801787	0.01117031330370248	-0.309442642333719	0.7559078642670555	-1.773737597989676	-1.773737597989696	0.295681913259786	7.457090477838742e-06	-0.3933828298759158	-0.08543842290611631	-0.1168979689728597	-0.02925169278152621	0.005327426893365825	-0.2810487716149442	0.1175310480955165	-0.01090842090592966	0.1517922338682694	-37.4094912798072	-3.090935548664121	-0.5016064826793187	-4.91668333507606	-3.477540506254746	-642.3095863469225	59.9152825522042	0.08404221205346868	0.4591800382010944	-0.6516075488038404	-0.5077054943699086	0.007168768229820243	-0.4592178228321057	1.424138469468397	-0.4917056251005602	-0.4917056251005599	0.4056773003266116	-0.008117260869324723	-0.1723426633629394	-0.002306819893966954	1.623595181314651e-07	1.951634221844235e-07	-7.867294170817875e-07	1.31169508705007e-06	-2.781637314008681e-08	3.088229325532423e-07	-6.730229877479331e-07
1.55	-0.206812308304327	0.01515524198374058	0.8670338754501881	0.7844272684870982	-0.2246908371478373	-0.1576278486840152	-0.2705776732114766	0.5638512193022295	0.5638512193022205	0.05114151090867843	0.174530575635108	0.1492790268794389	0.03227829460216326	0.585687820662095	0.2693409637630403	0.3781351743445833	-2.054749844405224	0.01103395240807539	-0.3138887859828587	0.7697497094589092	-1.777928731989464	-1.777928731989468	0.3001433528445011	3.685968530367344e-05	-0.3949791882862802	-0.08567812255498264	-0.1088378486719328	-0.03106681285781583	0.004740237494203736	-0.2786381693902308	0.1199277494799367	-0.01191700065461687	0.1448641314373498	-38.16334703659717	-2.180545429063899	-0.6908877141448067	-4.98855665299784	-3.698327065765465	-638.7573376915248	59.94752801373986	0.04016620729521467	0.4353440882574399	-0.6949067136481655	-0.3557135513607943	-0.02392200100952508	-0.4332862805322376	1.346705416175311	-0.3439658126377491	-0.3439658126354546	0.4631412503826061	0.007528689269466531	-0.143223028066009	-0.0321306030142901	1.71194758208156e-07	1.930326627632246e-07	-8.982778826319239e-07	1.300658276383876e-06	-1.437252657389231e-08	3.153947995094531e-07	-7.314786292949402e-07
1.56	-0.2009544602963393	0.01786996227739559	0.8707797559058091	0.7638652250214827	-0.2245811571925853	-0.1607882876678443	-0.2628138839122395	0.5460574503841114	0.5460574503841071	0.05416470996122932	0.1745309429483556	0.1453229303991261	0.03142076005922131	0.5857931311369957	0.2735604157633052	0.3709680047920978	-2.057370368329868	0.01090225221042636	-0.3181738754150917	0.7828914695360205	-1.780565806998048	-1.780565806998037	0.3044753509427626	2.86490645665911e-05	-0.3961731706243574	-0.08581098482910196	-0.1007777283710063	-0.03288193293410524	0.004153048095040151	-0.2762275671655172	0.122324450864357	-0.01292558040330373	0.1379360290064298	-38.86730640108947	-1.279360656490173	-0.8777108359225902	-5.065471469402595	-3.914961473831296	-635.3556893669622	60.06910970371805	-0.02218297528543257	0.407953946491773	-0.7385914605202422	-0.1613251586113703	0.00810090782543757	-0.4270069794507573	1.284121446519924	-0.180893826860009	-0.1808938268600091	0.3797890030359074	-0.01563990398191179	-0.09186744890549665	0.01906065505543387	1.806517633554487e-07	1.908196798684519e-07	-1.019644961161578e-06	1.28654291551146e-06	-5.5703840268148e-10	3.244613791840585e-07	-7.913313261200453e-07
1.57	-0.1950982372732099	0.02062554058369762	0.8744518622684584	0.7432856777548081	-0.2244728183561313	-0.1639910741831574	-0.2549223097140754	0.5282451221857323	0.5282451221857328	0.05723050878409482	0.1745313336792464	0.1413568972953291	0.03056238263033211	0.5853594680714481	0.2775065567523583	0.3633871764581558	-2.058238508113258	0.01076499920129174	-0.322351739202639	0.795293671805355	-1.781629558203536	-1.781629558203542	0.3086612675067169	4.111023170352129e-05	-0.3969633890526366	-0.08584728851849502	-0.09266477363359218	-0.03491343869031029	0.003568071303362571	-0.273986053273424	0.1249157842124309	-0.01409197455822019	0.1309696313817788	-39.51701131967796	-0.336991085644969	-1.128599501082534	-5.129044365174057	-4.121105920346039	-632.1679286008649	60.13352387618074	-0.06774051713752856	0.3806452523480315	-0.7776734793872996	-0.004447310384612663	-0.02467024829739647	-0.4081524456839491	1.198814873425831	-0.02861395193954377	-0.02861395194207628	0.4344110704897855	0.008681667801324556	-0.06206480451678556	-0.01244004341462875	1.908859748409938e-07	1.88503917631712e-07	-1.153285305915629e-06	1.268579366881266e-06	1.372300177479974e-08	3.366463497566571e-07	-8.529303420427726e-07
